<svg width="202" height="56" viewBox="0 0 202 56" fill="none" xmlns="http://www.w3.org/2000/svg">
<path fill-rule="evenodd" clip-rule="evenodd" d="M195.13 31.4979C195 30.6458 194.637 29.8363 193.98 29.0477H201.127L191.972 40.676C192.159 40.2993 192.344 39.9319 192.525 39.5732L192.607 39.411L192.607 39.411C192.905 38.82 193.192 38.2523 193.458 37.7061C194.039 36.5146 194.526 35.4197 194.834 34.3964C195.141 33.3726 195.271 32.4146 195.13 31.4979ZM193.98 28.8276H201.127L191.972 17.1992C192.159 17.576 192.344 17.9434 192.525 18.3022L192.608 18.4651C192.906 19.0559 193.192 19.6233 193.458 20.1693C194.039 21.3609 194.526 22.4557 194.834 23.479C195.141 24.5028 195.271 25.4608 195.13 26.3774C195 27.2296 194.637 28.039 193.98 28.8276Z" fill="#FF0000"/>
<path fill-rule="evenodd" clip-rule="evenodd" d="M45.024 10.9091C46.5265 10.9091 47.8057 10.3838 48.8618 9.33336C49.9582 8.24248 50.5064 6.94957 50.5064 5.45467C50.5064 3.95948 49.9582 2.68678 48.8618 1.63631C47.8057 0.545431 46.5265 0 45.024 0C43.5215 0 42.2221 0.545431 41.1257 1.63631C40.0699 2.68678 39.542 3.95948 39.542 5.45467C39.542 6.94957 40.0699 8.24248 41.1257 9.33336C42.2221 10.3838 43.5215 10.9091 45.024 10.9091ZM40.4556 43.879H49.5927V29.5597H40.4556V43.879ZM40.4556 28.2391V13.5757H49.5927V28.2391L40.4556 28.2391ZM61.3989 29.5597L55.3652 37.8183V43.879H79.7305V35.3941H67.6088L71.8714 29.5597L61.3989 29.5597ZM72.8362 28.2391L62.3638 28.2391L66.8778 22.0606L55.9743 22.0606V13.5757H79.1214V19.6364L72.8362 28.2391ZM85.19 29.5597V43.879H94.3271V29.5597H85.19ZM94.3271 28.2391H85.19V13.5757H94.3271V28.2391ZM101.014 29.5597V56H110.151V41.0301C112.262 43.495 115.288 44.7273 119.227 44.7273C123.247 44.7273 126.678 43.192 129.521 40.1211C132.188 37.2406 133.604 33.7203 133.769 29.5597H124.615C124.463 31.4352 123.784 32.9558 122.577 34.1212C121.237 35.4545 119.511 36.1212 117.399 36.1212C115.288 36.1212 113.541 35.4545 112.161 34.1212C110.989 32.9558 110.33 31.4352 110.183 29.5597H101.014ZM110.161 28.2391H101.014V13.5755H110.151V16.4242C112.262 13.9593 115.288 12.7271 119.227 12.7271C123.206 12.7271 126.638 14.2828 129.521 17.3939C132.26 20.3525 133.68 23.9677 133.779 28.2391H124.637C124.544 26.2046 123.857 24.5693 122.577 23.3331C121.237 21.9998 119.511 21.3331 117.399 21.3331C115.288 21.3331 113.541 21.9998 112.161 23.3331C110.919 24.5693 110.252 26.2046 110.161 28.2391ZM138.967 29.5597V43.8791H148.104V30.1819C148.104 29.9696 148.11 29.7622 148.121 29.5597H138.967ZM148.291 28.2391L138.967 28.2391V13.5758H148.104V18.9698C148.672 17.0709 149.789 15.5962 151.454 14.5457C153.16 13.495 155.088 12.9697 157.241 12.9697V23.273C154.967 22.9091 152.875 23.2932 150.967 24.4245C149.546 25.2368 148.653 26.5083 148.291 28.2391ZM159.114 29.5597C159.297 33.684 160.855 37.2044 163.787 40.1211C166.872 43.192 170.691 44.7273 175.236 44.7273C179.785 44.7273 183.603 43.192 186.689 40.1211C189.62 37.2044 191.179 33.684 191.363 29.5597H182.207C182.05 31.2862 181.392 32.7259 180.234 33.8788C178.894 35.2121 177.227 35.8788 175.236 35.8788C173.248 35.8788 171.582 35.2121 170.242 33.8788C169.084 32.7259 168.426 31.2862 168.269 29.5597H159.114ZM168.244 28.2391H159.102C159.213 24.0056 160.775 20.3904 163.787 17.3939C166.912 14.2828 170.73 12.7271 175.236 12.7271C179.746 12.7271 183.564 14.2828 186.689 17.3939C189.701 20.3904 191.264 24.0056 191.375 28.2391H182.232C182.135 26.3588 181.468 24.8043 180.234 23.5758C178.894 22.2422 177.227 21.5756 175.236 21.5756C173.248 21.5756 171.582 22.2422 170.242 23.5758C169.008 24.8043 168.341 26.3588 168.244 28.2391ZM33.7531 28.2391H24.6053C24.5144 26.2052 23.848 24.5703 22.606 23.3343C21.2659 22.001 19.5195 21.3344 17.3673 21.3344C15.2151 21.3344 13.4689 22.001 12.1289 23.3343C10.8866 24.5703 10.2201 26.2052 10.1293 28.2391H0.987122C1.08731 23.9682 2.50694 20.3534 5.24553 17.3951C8.1287 14.2841 11.5603 12.7283 15.5399 12.7283C19.4789 12.7283 22.5045 13.9605 24.6161 16.4254V1.45557L33.7531 1.45557V28.2391ZM0.99773 29.5597C1.1627 33.7208 2.57879 37.2416 5.24553 40.1223C8.08809 43.1932 11.5197 44.7285 15.5399 44.7285C19.4789 44.7285 22.5045 43.4962 24.6161 41.0313V43.88H33.7531V29.5597H24.5843C24.437 31.4357 23.7776 32.9568 22.606 34.1224C21.2659 35.4557 19.5195 36.1224 17.3673 36.1224C15.2151 36.1224 13.4689 35.4557 12.1289 34.1224C10.957 32.9568 10.2976 31.4357 10.1503 29.5597H0.99773ZM89.7587 10.9091C91.2612 10.9091 92.5403 10.3838 93.5961 9.33336C94.6926 8.24248 95.241 6.94957 95.241 5.45467C95.241 3.95948 94.6926 2.68678 93.5961 1.63631C92.5403 0.545431 91.2612 0 89.7587 0C88.2562 0 86.9567 0.545431 85.8603 1.63631C84.8042 2.68678 84.2763 3.95948 84.2763 5.45467C84.2763 6.94957 84.8042 8.24248 85.8603 9.33336C86.9567 10.3838 88.2562 10.9091 89.7587 10.9091Z" fill="black"/>
</svg>
