<svg width="28" height="28" viewBox="0 0 28 28" fill="none" xmlns="http://www.w3.org/2000/svg">
<path d="M14 23.3333C16.4754 23.3333 18.8493 22.3499 20.5997 20.5996C22.35 18.8492 23.3333 16.4753 23.3333 13.9999C23.3333 11.5246 22.35 9.15059 20.5997 7.40026C18.8493 5.64992 16.4754 4.66659 14 4.66659C11.5247 4.66659 9.15069 5.64992 7.40035 7.40026C5.65001 9.15059 4.66668 11.5246 4.66668 13.9999C4.66668 16.4753 5.65001 18.8492 7.40035 20.5996C9.15069 22.3499 11.5247 23.3333 14 23.3333ZM14 25.6666C7.55651 25.6666 2.33334 20.4434 2.33334 13.9999C2.33334 7.55642 7.55651 2.33325 14 2.33325C20.4435 2.33325 25.6667 7.55642 25.6667 13.9999C25.6667 20.4434 20.4435 25.6666 14 25.6666ZM10.3717 15.3649L7.45734 14.4561C6.82734 14.2636 6.82384 13.8296 7.59851 13.5181L18.9537 9.13142C19.6128 8.86309 19.9862 9.20258 19.7727 10.0531L17.8395 19.1764C17.7042 19.8263 17.3133 19.9814 16.7708 19.6816L13.7947 17.4789L12.4075 18.8183C12.2652 18.9559 12.1497 19.0738 11.9303 19.1029C11.7122 19.1333 11.5325 19.0679 11.4007 18.7063L10.3857 15.3568L10.3717 15.3661V15.3649Z" fill="black"/>
</svg>
