<svg width="28" height="28" viewBox="0 0 28 28" fill="none" xmlns="http://www.w3.org/2000/svg">
<path d="M22.8736 8.16091C22.785 7.81325 22.533 7.55075 22.2448 7.47025C21.735 7.32675 19.25 7.00008 14 7.00008C8.74998 7.00008 6.26731 7.32675 5.75281 7.47025C5.46815 7.54958 5.21615 7.81208 5.12631 8.16091C4.99915 8.65558 4.66665 10.7287 4.66665 14.0001C4.66665 17.2714 4.99915 19.3434 5.12631 19.8404C5.21498 20.1869 5.46698 20.4494 5.75398 20.5287C6.26731 20.6734 8.74998 21.0001 14 21.0001C19.25 21.0001 21.7338 20.6734 22.2471 20.5299C22.5318 20.4506 22.7838 20.1881 22.8736 19.8392C23.0008 19.3446 23.3333 17.2667 23.3333 14.0001C23.3333 10.7334 23.0008 8.65675 22.8736 8.16091ZM25.1335 7.58108C25.6666 9.66008 25.6666 14.0001 25.6666 14.0001C25.6666 14.0001 25.6666 18.3401 25.1335 20.4191C24.8371 21.5683 23.9703 22.4724 22.8725 22.7781C20.8786 23.3334 14 23.3334 14 23.3334C14 23.3334 7.12481 23.3334 5.12748 22.7781C4.02498 22.4677 3.15931 21.5648 2.86648 20.4191C2.33331 18.3401 2.33331 14.0001 2.33331 14.0001C2.33331 14.0001 2.33331 9.66008 2.86648 7.58108C3.16281 6.43192 4.02965 5.52775 5.12748 5.22208C7.12481 4.66675 14 4.66675 14 4.66675C14 4.66675 20.8786 4.66675 22.8725 5.22208C23.975 5.53241 24.8406 6.43542 25.1335 7.58108ZM11.6666 18.0834V9.91675L18.6666 14.0001L11.6666 18.0834Z" fill="black"/>
</svg>
